<svg xmlns="http://www.w3.org/2000/svg" xmlns:xlink="http://www.w3.org/1999/xlink" width="96" height="44" viewBox="0 0 96 44"><defs><style>.a{fill:none;stroke:#707070;}.b{clip-path:url(#a);}.c{fill:#06f;}</style><clipPath id="a"><rect class="a" width="96" height="44" transform="translate(352 28)"/></clipPath></defs><g transform="translate(-352 -28)"><g class="b"><g transform="translate(5.038 -5277.396)"><path d="M14.3-8.36a4.652,4.652,0,0,1-4.2,2.947c-2.9,0-4.691-2.546-4.691-5.186a4.826,4.826,0,0,1,4.667-5.092A4.521,4.521,0,0,1,14.3-12.65h4.667A8.921,8.921,0,0,0,10.108-19.6,9,9,0,0,0,.962-10.575,9.073,9.073,0,0,0,10.156-1.5a8.941,8.941,0,0,0,8.816-6.86Zm7.1,6.53H33.738V-5.743H25.855V-19.274H21.4Zm14.989,0h4.455V-19.274H36.389ZM56.638-8.36a4.652,4.652,0,0,1-4.2,2.947c-2.9,0-4.691-2.546-4.691-5.186a4.826,4.826,0,0,1,4.667-5.092,4.521,4.521,0,0,1,4.22,3.041h4.667A8.921,8.921,0,0,0,52.442-19.6,9,9,0,0,0,43.3-10.575,9.073,9.073,0,0,0,52.489-1.5a8.941,8.941,0,0,0,8.816-6.86Zm7.449,6.53h4.455V-9.373L73.352-1.83h5.422L72.432-10.6l5.752-8.675H73.517l-4.974,7.85v-7.85H64.087Z" transform="translate(347 5338)"/><path class="c" d="M92.29-19.24H88.448V-1.8h4.267L92.62-12.309,99.292-1.8h3.866V-19.24H98.891l.094,10.632Z" transform="translate(338.834 5337.966)"/></g></g></g></svg>