<svg xmlns="http://www.w3.org/2000/svg" width="96" height="44"><defs><clipPath id="a"><path transform="translate(352 28)" fill="none" stroke="#707070" d="M0 0h96v44H0z"/></clipPath></defs><g clip-path="url(#a)" transform="translate(-352 -28)"><path d="M366.338 52.244a4.652 4.652 0 01-4.2 2.947c-2.9 0-4.691-2.546-4.691-5.186a4.826 4.826 0 014.667-5.092 4.521 4.521 0 014.224 3.041h4.667a8.921 8.921 0 00-8.859-6.95A9 9 0 00353 50.029a9.073 9.073 0 009.194 9.075 8.941 8.941 0 008.816-6.86zm7.1 6.53h12.338v-3.913h-7.883V41.33h-4.455zm14.989 0h4.455V41.33h-4.455zm20.249-6.53a4.652 4.652 0 01-4.2 2.947c-2.9 0-4.691-2.546-4.691-5.186a4.826 4.826 0 014.667-5.092 4.521 4.521 0 014.22 3.041h4.667a8.921 8.921 0 00-8.859-6.95 9 9 0 00-9.142 9.025 9.073 9.073 0 009.189 9.075 8.941 8.941 0 008.816-6.86zm7.449 6.53h4.455v-7.543l4.81 7.543h5.422l-6.342-8.77 5.752-8.675h-4.667l-4.974 7.85v-7.85h-4.456z"/><path d="M436.162 41.33h-3.842v17.44h4.267l-.095-10.509 6.672 10.509h3.866V41.33h-4.267l.094 10.632z" fill="#06f"/></g></svg>